<?xml version="1.0" encoding="utf-8"?>
<!-- Generator: Adobe Illustrator 24.1.2, SVG Export Plug-In . SVG Version: 6.00 Build 0)  -->
<svg version="1.1" id="Layer_1" xmlns="http://www.w3.org/2000/svg" xmlns:xlink="http://www.w3.org/1999/xlink" x="0px" y="0px"
	 viewBox="0 0 400 400" style="enable-background:new 0 0 400 400;" xml:space="preserve">
<style type="text/css">
	.st0{fill:#FFFFFF;}
</style>
<g id="UwL8mU_1_">
	<g>
		<path class="st0" d="M307.07,98.88c3.61-0.36,7.18-0.73,10.75-1.06c15.03-1.39,30.07-2.59,45.17-1.6
			c4.21,0.28,8.46,0.91,12.55,1.93c6.57,1.65,7.73,4.51,4.69,10.52c-2.8,5.54-6.81,10.21-11,14.71
			c-12.11,12.96-25.92,23.88-40.72,33.56c-7.64,5-15.6,9.5-23.44,14.19c-0.75,0.45-1.16,0.88-1.22,1.81c-0.35,5-1.62,9.8-4.18,14.09
			c-7.16,12-6.57,24.48-2.41,37.13c1.11,3.39,2.8,6.61,4.48,9.78c2.91,5.49,1.62,9.41-4.23,11.59c-2.13,0.79-4.47,1.02-6.66,1.69
			c-1.89,0.58-3.72,1.37-5.54,2.15c-1.05,0.45-1.12,1.32-0.55,2.24c0.37,0.59,0.78,1.16,1.2,1.71c1.61,2.14,1.75,3.82,0.28,6.05
			c-0.82,1.25-1.76,2.43-2.81,3.49c-1.1,1.12-1.1,2.12-0.18,3.28c0.37,0.47,0.72,0.97,0.99,1.5c0.96,1.89-0.14,3.92-2.24,4.18
			c-2.88,0.36-4.58,2.24-5.9,4.58c-1.57,2.79-1.71,5.91-2.09,8.98c-0.41,3.3-0.99,6.55-3.45,9.06c-3.66,3.74-8.28,4.3-13.17,3.86
			c-4.85-0.43-9.04-2.62-13.25-4.87c-4.48-2.39-9.01-4.72-13.65-6.77c-2.6-1.15-5.49-1.43-8.38-0.86c-1.88,0.37-3.57,1.17-4.74,2.65
			c-6.3,7.95-10.68,16.64-9.96,27.16c0.47,6.88,3.39,12.74,7.66,18.03c4.24,5.25,9.66,8.82,15.68,11.73
			c4.6,2.23,8.73,5.24,12.09,9.18c7.17,8.4,6.21,19.31-2.44,26.17c-8.08,6.41-17.13,7.32-26.75,4.22c-6.04-1.95-11.49-5.1-16.73-8.6
			c-19.73-13.17-40.65-24.19-62.02-34.4c-4.77-2.28-9.65-4.32-14.46-6.49c-9.99-4.5-16.17-11.99-17.65-22.98
			c-0.67-4.92,1.14-9.25,4.04-13.13c4.16-5.56,9.72-9.42,15.76-12.65c4.33-2.32,4.34-2.31,6.71-6.91c-1.5-1.31-3.05-2.62-4.56-3.98
			c-4.74-4.28-9.81-8.26-14.14-12.93c-11.49-12.39-10.53-32.3,1.74-43.94c1.95-1.85,3.83-3.8,5.58-5.84
			c1.05-1.22,1.78-2.71,2.84-4.38c-2.66-0.28-4.95-0.34-7.16-0.81c-2.3-0.49-3.67,0.36-4.97,2.14c-5.11,7.03-10.32,14-13.42,22.24
			c-2.45,6.51-3.2,13.16-1.38,19.98c0.91,3.4,2.67,6.32,4.88,9.01c1.4,1.7,2.78,3.4,4.09,5.17c1.28,1.74,2.21,3.66,2.46,6.09
			c-0.31-0.28-0.5-0.4-0.62-0.57c-7.17-10.04-13.14-20.73-17.59-32.25c-1.58-4.09-2.52-8.32-1.72-12.75
			c0.64-3.55,2.55-6.42,5.21-8.71c2.68-2.31,5.59-4.35,8.38-6.54c1.87-1.46,3.71-2.97,5.56-4.45c-0.05-0.13-0.1-0.25-0.15-0.38
			c-2.4-0.36-4.79-0.7-7.19-1.08c-18.47-2.97-36.66-7.04-54.07-14.07c-5.24-2.12-10.38-4.45-14.85-7.99
			c-4.55-3.6-4.65-6.35-0.38-10.29c4.35-4.01,9.53-6.72,14.78-9.31c14-6.9,28.67-12.11,43.44-17.06c3.82-1.28,7.67-2.5,11.52-3.75
			c-0.15-2.13-0.39-4.21-0.43-6.28c-0.12-6.73-0.39-13.47-0.2-20.2c0.65-22.49,6.66-43.35,19.9-61.78
			c14.4-20.04,33.8-32.87,57.7-38.68c31.06-7.55,60.12-2.61,86.64,15.37c19.17,13,32.43,30.85,40.91,52.29
			c1.79,4.54,3.12,9.26,4.66,13.9C306.84,98.25,306.94,98.52,307.07,98.88z M127.93,212.59c-3.59,3.07-6.53,6.71-8.84,10.82
			c-6.63,11.8-7.1,23.46,0.9,34.93c3.4,4.87,6.65,9.85,9.97,14.77c0.52,0.76,1.06,1.51,1.68,2.38c0.34-0.67,0.59-1.15,0.84-1.63
			c5.18-10.13,5.96-20.45,1.49-31.06c-1.63-3.86-3.16-7.76-4.59-11.7C127.2,225.12,125.72,219.05,127.93,212.59z"/>
	</g>
</g>
</svg>
